<svg xmlns="http://www.w3.org/2000/svg" width="88" height="50"><path fill="#fff" fill-rule="evenodd" d="m85.35 8.642 2.052 2.052a.227.227 0 0 1 .067.162v11.9a.222.222 0 0 1-.067.162l-2.053 2.053a.228.228 0 0 1-.161.067H73.287a.228.228 0 0 1-.16-.067l-2.054-2.053a.225.225 0 0 1-.067-.161v-3.201c0-.06.024-.12.067-.162l2.008-2.01a.818.818 0 0 0 0-1.156l-2.008-2.01a.225.225 0 0 1-.067-.16v-3.203c0-.06.024-.118.067-.162l2.053-2.051a.227.227 0 0 1 .161-.067h11.9c.062 0 .12.024.162.067zM80.045 20.35l2.641-6.591h-1.432l-1.447 3.737-1.975-3.737h-1.445l2.81 5.244-.375.857-.04.1c-.074.18-.158.305-.249.37-.087.062-.23.094-.425.094-.244 0-.458-.008-.643-.024l-.208-.017v1.303l.972.03c.447 0 .82-.11 1.105-.327.279-.212.518-.561.711-1.04zm-8.186-3.668a.177.177 0 0 1 0 .25l-1.801 1.8c-.218.219-.34.516-.34.824v3.202c0 .06-.024.118-.067.16l-2.053 2.054a.23.23 0 0 1-.162.067h-11.9a.232.232 0 0 1-.162-.067l-2.052-2.053a.226.226 0 0 1-.067-.161v-3.202c0-.06.023-.12.067-.161l2.007-2.01a.812.812 0 0 0 .24-.578.811.811 0 0 0-.239-.578l-2.009-2.01a.224.224 0 0 1-.066-.16v-3.205a.23.23 0 0 1 .066-.161l2.053-2.051a.23.23 0 0 1 .162-.067h11.9c.061 0 .12.024.162.067l2.052 2.052a.229.229 0 0 1 .067.162v3.2c0 .31.123.606.341.824l1.8 1.8zm-7.261.26v-.53c0-.867-.207-1.555-.612-2.043-.415-.5-.993-.754-1.717-.754-.44 0-.856.12-1.237.358a2.407 2.407 0 0 0-.44.35v-.563h-1.286v6.452h1.34v-2.96c0-.73.13-1.33.388-1.782.24-.424.603-.63 1.108-.63.337 0 .597.129.8.396.21.279.316.682.316 1.198v.509zm-10.49-.26a.179.179 0 0 1 0 .25l-1.801 1.8a1.168 1.168 0 0 0-.341.825v3.2c0 .06-.024.12-.067.162l-2.053 2.053a.229.229 0 0 1-.161.067h-11.9a.226.226 0 0 1-.162-.067l-2.053-2.053a.223.223 0 0 1-.067-.161v-3.201a.23.23 0 0 1 .067-.163l2.008-2.008a.815.815 0 0 0 0-1.157l-2.008-2.01a.222.222 0 0 1-.067-.16v-3.204c0-.06.024-.118.067-.161l2.053-2.052a.229.229 0 0 1 .161-.067h11.9c.061 0 .12.024.162.067l2.053 2.053c.043.042.067.1.067.16v3.2c0 .31.123.607.34.825l1.803 1.802zm-7.26 1.767v-.193H45.6l-.011.18a.687.687 0 0 1-.24.49c-.15.134-.35.2-.61.2a.992.992 0 0 1-.718-.286c-.196-.187-.296-.506-.296-.945v-2.91h2.525v-1.226h-2.525v-1.68h-1.26v1.68H40.62v1.225h1.843v2.905c0 .775.225 1.387.668 1.818.442.426.979.643 1.595.643.663 0 1.188-.192 1.562-.571.372-.378.56-.826.56-1.331zM36.357 16.68a.177.177 0 0 1 0 .25l-1.801 1.8c-.219.22-.341.515-.341.825v3.2c0 .06-.024.12-.067.162l-2.052 2.053a.23.23 0 0 1-.162.067H20.032a.23.23 0 0 1-.162-.067l-2.052-2.053a.23.23 0 0 1-.067-.162v-3.2c0-.061.025-.12.067-.163l2.009-2.008a.814.814 0 0 0 .24-.58.814.814 0 0 0-.24-.578l-2.009-2.008a.23.23 0 0 1-.067-.162v-3.201a.23.23 0 0 1 .067-.161l2.053-2.053a.229.229 0 0 1 .162-.067h11.899a.23.23 0 0 1 .163.067l2.052 2.053c.043.042.067.1.067.16v3.2c0 .31.122.606.34.825l1.803 1.802zm-7.013 3.53v-3.72c0-.904-.23-1.616-.682-2.116-.459-.505-1.116-.761-1.955-.761a2.547 2.547 0 0 0-1.726.672v-.527h-1.237v6.452h1.26v-3.208c0-.682.147-1.223.434-1.608.281-.374.675-.556 1.209-.556.434 0 .76.13.998.395.238.27.36.665.36 1.176v3.8zm-10.74-3.53c.07.07.07.18 0 .25l-1.8 1.8c-.218.219-.34.516-.34.824v3.202a.23.23 0 0 1-.068.16l-2.052 2.053a.232.232 0 0 1-.162.068h-11.9a.232.232 0 0 1-.162-.067L.067 22.918A.226.226 0 0 1 0 22.757V10.855a.23.23 0 0 1 .067-.161l2.052-2.052a.23.23 0 0 1 .162-.067h11.9a.23.23 0 0 1 .162.067l2.052 2.052a.23.23 0 0 1 .067.162v3.2c0 .31.123.606.341.824l1.8 1.8zm-7.408.78.016-.61c0-.524-.088-1.024-.265-1.485-.182-.474-.504-.887-.955-1.23-.457-.347-1.025-.522-1.684-.522-.895 0-1.62.333-2.156.99-.526.646-.793 1.456-.793 2.41 0 .98.29 1.788.861 2.402.575.62 1.353.934 2.31.934.991 0 1.839-.41 2.517-1.22l.118-.141-.92-.85-.127.208c-.444.555-.966.778-1.588.778-.543 0-.968-.16-1.298-.486-.29-.288-.468-.683-.532-1.177h4.496ZM8.337 14.84c.452 0 .808.14 1.084.43.238.249.39.574.452.968h-3.11c.09-.387.254-.71.488-.964.27-.292.625-.434 1.086-.434z"/><g aria-label="Bintry"><path d="M21.107 29.838h4.248q1.608 0 2.496.78.9.78.9 2.136 0 .54-.324 1.056-.324.504-.816.684.696.228 1.14.84.456.6.456 1.32 0 .9-.42 1.572-.408.672-1.2 1.032t-1.872.36h-4.608zm4.152 3.96q.624 0 .96-.264.348-.276.348-.78 0-.516-.348-.78-.336-.276-.96-.276h-1.968v2.1zm.36 3.96q.66 0 1.032-.288t.372-.816q0-.528-.372-.816-.372-.288-1.032-.288h-2.328v2.208zM31.499 29.19q.564 0 .936.372.372.372.372.936 0 .564-.372.936-.372.372-.936.372-.564 0-.936-.372-.372-.372-.372-.936 0-.564.372-.936.372-.372.936-.372zm1.068 10.452h-2.136v-7.056h2.136zM34.175 32.586h2.136v.72q.66-.888 1.968-.888.816 0 1.44.384.624.372.96 1.08.348.708.348 1.668v4.068h-2.136V35.91q0-.804-.324-1.224-.312-.432-.912-.432-.624 0-.984.468t-.36 1.284v3.612h-2.136zM46.667 34.422h-1.392v5.196h-2.136v-5.196h-1.392v-1.836h1.392v-2.088h2.136v2.088h1.392zM47.663 32.586h2.136v.72q.66-.888 1.968-.888.576 0 .924.12l.024 2.004q-.456-.24-1.092-.24-.852 0-1.344.456-.48.456-.48 1.26v3.6h-2.136zM60.791 32.586l-4.044 9.96h-2.1l1.272-3.12-2.772-6.84h2.364l1.524 4.344 1.536-4.344z" style="-inkscape-font-specification:&quot;Gmarket Sans TTF Bold&quot;;fill:#fff" transform="translate(-21.107 3.02)"/></g><g aria-label="Made with" style="font-weight:700;font-size:5.33333px;font-family:&quot;Gmarket Sans TTF&quot;;-inkscape-font-specification:&quot;Gmarket Sans TTF Bold&quot;;fill:#fff"><path d="M.49 2.882 2.14 5.784l1.648-2.902h.49v4.272h-.56V4.002L2.341 6.434h-.405L.56 4.002v3.152H0V2.882ZM6.512 7.229q-.427 0-.773-.208-.342-.208-.539-.576t-.197-.816q0-.448.197-.816.197-.368.539-.576.346-.208.773-.208.39 0 .672.155.283.154.41.373v-.453h.55v3.05h-.55v-.453q-.127.219-.41.373-.283.155-.672.155Zm.048-.485q.304 0 .539-.144.24-.15.373-.4.133-.256.133-.571 0-.315-.133-.565-.133-.256-.373-.4-.235-.15-.539-.15-.299 0-.533.144-.23.144-.358.4-.128.256-.128.57 0 .316.128.572.128.256.358.4.234.144.533.144zM10.357 7.229q-.426 0-.773-.208-.341-.208-.539-.576-.197-.368-.197-.816 0-.448.197-.816.198-.368.539-.576.347-.208.773-.208.39 0 .672.155.283.154.411.373V2.749h.55v4.405h-.55v-.453q-.128.219-.41.373-.283.155-.673.155zm.048-.485q.304 0 .539-.144.24-.15.373-.4.134-.256.134-.571 0-.315-.134-.565-.133-.256-.373-.4-.235-.15-.539-.15-.298 0-.533.144-.23.144-.357.4-.128.256-.128.57 0 .316.128.572.128.256.357.4.235.144.533.144zM14.224 7.229q-.437 0-.79-.208-.346-.208-.543-.57-.198-.369-.198-.822 0-.453.198-.816.197-.368.544-.576.352-.208.789-.208.437 0 .784.208.352.208.544.576.197.363.197.816 0 .15-.01.224h-2.496q.042.4.309.656.272.256.672.256.304 0 .533-.123.235-.128.32-.32h.56q-.128.4-.512.65-.384.257-.901.257zm.987-1.824q-.048-.405-.315-.656-.267-.256-.672-.256t-.672.256q-.267.25-.31.656zM22.523 4.104l-1.078 3.05h-.554l-.806-2.336-.8 2.336h-.554l-1.078-3.05h.571l.8 2.368.795-2.368h.554l.8 2.384.806-2.384zM23.37 2.696q.16 0 .262.106.107.102.107.256 0 .155-.107.262-.101.1-.261.1-.155 0-.262-.1-.101-.107-.101-.262 0-.154.101-.256.107-.106.262-.106zM23.1 7.16V4.104h.549V7.16zM26.112 4.589h-.677v2.565h-.55V4.59h-.677v-.485h.677v-.928h.55v.928h.677zM27.227 2.749v1.819q.117-.208.384-.374.272-.165.65-.165.358 0 .635.165.283.166.437.47.155.298.155.704v1.786h-.55v-1.69q0-.46-.213-.704-.208-.251-.581-.251-.261 0-.47.15-.207.143-.33.389-.117.245-.117.528v1.578h-.55V2.75Z" style="font-weight:500;-inkscape-font-specification:&quot;Gmarket Sans TTF Medium&quot;"/></g><g aria-label="and" style="font-weight:700;font-size:5.33333px;font-family:&quot;Gmarket Sans TTF&quot;;-inkscape-font-specification:&quot;Gmarket Sans TTF Bold&quot;;fill:#fff"><path d="M1.51 30.864q-.427 0-.774-.208-.341-.208-.539-.576Q0 29.712 0 29.264q0-.448.197-.816.198-.368.539-.576.347-.208.773-.208.39 0 .672.155.283.155.411.373v-.453h.55v3.05h-.55v-.453q-.128.219-.41.374-.283.154-.673.154zm.047-.485q.304 0 .539-.144.24-.15.373-.4.134-.256.134-.57 0-.315-.134-.566-.133-.256-.373-.4-.235-.15-.539-.15-.298 0-.533.145-.23.144-.357.4-.128.256-.128.57 0 .315.128.571.128.256.357.4.235.144.533.144zM4.555 27.739v.464q.117-.208.384-.373.272-.166.65-.166.358 0 .635.166.283.165.437.469.155.299.155.704v1.787h-.55v-1.691q0-.459-.213-.704-.208-.25-.581-.25-.261 0-.47.149-.207.144-.33.389-.117.245-.117.528v1.579h-.55v-3.051zM8.944 30.864q-.427 0-.773-.208-.342-.208-.539-.576t-.197-.816q0-.448.197-.816.197-.368.539-.576.346-.208.773-.208.39 0 .672.155.283.155.41.373v-1.808h.55v4.406h-.55v-.454q-.127.219-.41.374-.283.154-.672.154Zm.048-.485q.304 0 .539-.144.24-.15.373-.4.133-.256.133-.57 0-.315-.133-.566-.133-.256-.373-.4-.235-.15-.539-.15-.299 0-.533.145-.23.144-.358.4-.128.256-.128.57 0 .315.128.571.128.256.358.4.234.144.533.144z" style="font-weight:500;-inkscape-font-specification:&quot;Gmarket Sans TTF Medium&quot;"/></g><text xml:space="preserve" x="14.397" y="-8.985" style="font-style:normal;font-variant:normal;font-weight:500;font-stretch:normal;font-size:5.33333px;font-family:&quot;Gmarket Sans TTF&quot;;-inkscape-font-specification:&quot;Gmarket Sans TTF Medium&quot;;fill:#fff"/><text xml:space="preserve" x="15.588" y="30.96" style="font-style:normal;font-variant:normal;font-weight:500;font-stretch:normal;font-size:5.33333px;font-family:&quot;Gmarket Sans TTF&quot;;-inkscape-font-specification:&quot;Gmarket Sans TTF Medium&quot;;fill:#fff"/></svg>